<?xml version="1.0" standalone="no"?>
<!DOCTYPE svg PUBLIC "-//W3C//DTD SVG 20010904//EN"
 "http://www.w3.org/TR/2001/REC-SVG-20010904/DTD/svg10.dtd">
<svg version="1.0" xmlns="http://www.w3.org/2000/svg"
 width="300.000000pt" height="300.000000pt" viewBox="0 0 300.000000 300.000000"
 preserveAspectRatio="xMidYMid meet">
<metadata>
Created by potrace 1.10, written by Peter Selinger 2001-2011
</metadata>
<g transform="translate(0.000000,300.000000) scale(0.100000,-0.100000)"
fill="#000000" stroke="none">
<path d="M70 1803 c0 -5 101 -7 225 -5 l225 3 3 -288 2 -288 3 293 2 292 -230
0 c-126 0 -230 -3 -230 -7z"/>
<path d="M547 1803 c-12 -11 -8 -603 3 -603 6 0 10 107 10 300 l0 300 220 0
220 0 3 -302 2 -303 3 308 2 307 -228 0 c-126 0 -232 -3 -235 -7z"/>
<path d="M1133 1803 c64 -2 170 -2 235 0 64 1 11 3 -118 3 -129 0 -182 -2
-117 -3z"/>
<path d="M1613 1803 c64 -2 170 -2 235 0 64 1 11 3 -118 3 -129 0 -182 -2
-117 -3z"/>
<path d="M2083 1803 c64 -2 170 -2 235 0 64 1 11 3 -118 3 -129 0 -182 -2
-117 -3z"/>
<path d="M2563 1803 c64 -2 170 -2 235 0 64 1 11 3 -118 3 -129 0 -182 -2
-117 -3z"/>
<path d="M70 1485 c0 -159 2 -286 5 -284 6 7 7 560 1 567 -3 3 -6 -124 -6
-283z"/>
<path d="M110 1751 c0 -5 7 -15 17 -22 15 -13 15 -12 4 9 -12 23 -21 28 -21
13z"/>
<path d="M150 1679 c-13 -9 -13 -10 0 -6 8 2 24 -3 35 -12 20 -16 20 -16 1 7
-11 12 -20 22 -20 22 -1 0 -8 -5 -16 -11z"/>
<path d="M170 1642 c6 -13 14 -21 18 -18 3 4 -2 14 -12 24 -18 16 -18 16 -6
-6z"/>
<path d="M220 1611 c0 -7 -5 -9 -12 -5 -7 5 -8 3 -3 -5 5 -9 10 -10 18 -2 6 6
8 14 4 18 -4 3 -7 1 -7 -6z"/>
<path d="M769 1615 c-4 -44 1 -226 7 -227 5 -2 10 50 12 115 2 75 -1 117 -8
117 -5 0 -10 -2 -11 -5z"/>
<path d="M1200 1600 c0 -5 23 -10 50 -10 28 0 50 5 50 10 0 6 -22 10 -50 10
-27 0 -50 -4 -50 -10z"/>
<path d="M1670 1600 c0 -5 25 -10 55 -10 30 0 55 5 55 10 0 6 -25 10 -55 10
-30 0 -55 -4 -55 -10z"/>
<path d="M2695 1600 c-4 -6 -11 -7 -17 -4 -6 4 -9 3 -6 -2 8 -12 228 -6 228 7
0 12 -197 12 -205 -1z"/>
<path d="M247 1566 c-4 -10 -1 -13 8 -9 8 3 12 9 9 14 -7 12 -11 11 -17 -5z"/>
<path d="M271 1533 c-11 -12 -10 -14 4 -11 10 2 20 -3 23 -11 3 -9 0 -11 -9
-6 -8 5 -10 4 -6 0 4 -5 14 -10 22 -11 11 -2 12 2 5 14 -22 38 -25 40 -39 25z"/>
<path d="M330 1470 c0 -5 5 -10 11 -10 5 0 7 5 4 10 -3 6 -8 10 -11 10 -2 0
-4 -4 -4 -10z"/>
<path d="M367 1414 c-10 -10 12 -44 29 -44 9 0 12 -5 8 -12 -5 -10 -4 -10 7 0
11 10 10 15 -5 30 -11 9 -16 11 -12 5 4 -7 3 -13 -2 -13 -15 0 -22 28 -9 34 7
3 8 5 1 5 -6 1 -14 -2 -17 -5z"/>
<path d="M2185 1411 c3 -6 -3 -14 -12 -20 -14 -8 -10 -10 25 -11 23 0 42 5 42
10 0 6 -9 10 -20 10 -11 0 -20 5 -20 10 0 6 -5 10 -11 10 -5 0 -8 -4 -4 -9z"/>
<path d="M2218 1413 c7 -3 16 -2 19 1 4 3 -2 6 -13 5 -11 0 -14 -3 -6 -6z"/>
<path d="M2888 1410 c-1 -5 -51 -10 -110 -11 -59 -1 -105 -5 -102 -10 3 -5 54
-9 115 -9 102 0 109 1 109 20 0 21 -6 27 -12 10z"/>
<path d="M1290 1400 c37 -12 190 -12 190 0 0 6 -42 10 -107 9 -70 -1 -99 -4
-83 -9z"/>
<path d="M1714 1300 c0 -58 1 -81 3 -52 2 28 2 76 0 105 -2 28 -3 5 -3 -53z"/>
<path d="M445 1310 c-3 -5 7 -23 23 -41 23 -25 31 -29 37 -18 5 8 4 11 0 6 -5
-4 -17 0 -27 10 -22 19 -25 41 -3 23 13 -11 14 -10 9 3 -7 19 -31 30 -39 17z"/>
<path d="M193 1193 c59 -2 154 -2 210 0 56 1 8 3 -108 3 -116 0 -161 -2 -102
-3z"/>
<path d="M673 1193 c59 -2 155 -2 215 0 59 1 10 3 -108 3 -118 0 -167 -2 -107
-3z"/>
<path d="M1133 1193 c59 -2 155 -2 215 0 59 1 10 3 -108 3 -118 0 -167 -2
-107 -3z"/>
<path d="M1548 1193 c29 -2 74 -2 100 0 26 2 2 3 -53 3 -55 0 -76 -1 -47 -3z"/>
<path d="M1793 1193 c32 -2 81 -2 110 0 29 2 3 3 -58 3 -60 0 -84 -1 -52 -3z"/>
<path d="M2093 1193 c65 -2 168 -2 230 0 62 1 9 3 -118 3 -126 0 -177 -2 -112
-3z"/>
<path d="M2563 1193 c65 -2 168 -2 230 0 62 1 9 3 -118 3 -126 0 -177 -2 -112
-3z"/>
<path d="M1361 214 c0 -11 3 -14 6 -6 3 7 2 16 -1 19 -3 4 -6 -2 -5 -13z"/>
</g>
</svg>
